<svg width="217" height="30" viewBox="0 0 217 30" fill="none" xmlns="http://www.w3.org/2000/svg">
<path d="M64.607 3.424H67.295C67.7644 3.424 67.999 3.63733 67.999 4.064V18.784C67.999 20.448 67.5297 21.7387 66.591 22.656C65.6737 23.552 64.383 24 62.719 24H59.199C57.5137 24 56.2124 23.552 55.295 22.656C54.3777 21.76 53.919 20.4693 53.919 18.784V4.096C53.919 3.648 54.143 3.424 54.591 3.424H57.311C57.759 3.424 57.983 3.648 57.983 4.096V18.592C57.983 19.2747 58.1217 19.7653 58.399 20.064C58.6977 20.3413 59.1777 20.48 59.839 20.48H62.047C62.7297 20.48 63.2097 20.3413 63.487 20.064C63.7857 19.7653 63.935 19.2747 63.935 18.592V4.096C63.935 3.648 64.159 3.424 64.607 3.424ZM83.1213 24H72.6573C72.2093 24 71.9853 23.776 71.9853 23.328V4.096C71.9853 3.648 72.2093 3.424 72.6573 3.424H83.1213C83.5479 3.424 83.7613 3.648 83.7613 4.096V6.272C83.7613 6.72 83.5479 6.944 83.1213 6.944H76.4333C76.1773 6.944 76.0493 7.06133 76.0493 7.296V11.456C76.0493 11.6907 76.1773 11.808 76.4333 11.808H81.9053C82.3533 11.808 82.5773 12.032 82.5773 12.48V14.656C82.5773 15.104 82.3533 15.328 81.9053 15.328H76.4333C76.1773 15.328 76.0493 15.4453 76.0493 15.68V20.128C76.0493 20.3627 76.1773 20.48 76.4333 20.48H83.1213C83.5479 20.48 83.7613 20.704 83.7613 21.152V23.328C83.7613 23.776 83.5479 24 83.1213 24ZM90.6898 24H87.9698C87.5218 24 87.2978 23.776 87.2978 23.328V4.096C87.2978 3.648 87.5218 3.424 87.9698 3.424H95.5858C97.2498 3.424 98.5511 3.88267 99.4898 4.8C100.428 5.71733 100.898 7.008 100.898 8.672V11.168C100.898 13.5787 99.9484 15.1787 98.0498 15.968V16.096L101.474 23.232C101.666 23.744 101.484 24 100.93 24H98.3378C97.9538 24 97.6764 23.9573 97.5058 23.872C97.3351 23.7867 97.1964 23.6053 97.0898 23.328L93.8898 16.416H91.7458C91.4898 16.416 91.3618 16.5333 91.3618 16.768V23.328C91.3618 23.776 91.1378 24 90.6898 24ZM91.7138 13.152H94.8498C95.5324 13.152 96.0338 13.0133 96.3538 12.736C96.6738 12.4373 96.8338 11.968 96.8338 11.328V8.832C96.8338 8.17067 96.6738 7.69067 96.3538 7.392C96.0338 7.09333 95.5324 6.944 94.8498 6.944H91.7138C91.4791 6.944 91.3618 7.06133 91.3618 7.296V12.8C91.3618 13.0347 91.4791 13.152 91.7138 13.152Z" fill="#1A6899"/>
<path d="M114.165 24H112.725C112.426 24 112.277 23.8507 112.277 23.552V3.872C112.277 3.57333 112.426 3.424 112.725 3.424H120.085C121.557 3.424 122.72 3.85067 123.573 4.704C124.426 5.536 124.853 6.688 124.853 8.16V11.072C124.853 12.2667 124.565 13.2587 123.989 14.048C123.413 14.816 122.613 15.328 121.589 15.584V15.712L125.301 23.488C125.493 23.8293 125.386 24 124.981 24H123.541C123.178 24 122.912 23.8507 122.741 23.552L119.157 15.808H114.933C114.72 15.808 114.613 15.904 114.613 16.096V23.552C114.613 23.8507 114.464 24 114.165 24ZM114.933 13.856H119.765C121.6 13.856 122.517 12.9387 122.517 11.104V8.256C122.517 6.4 121.6 5.472 119.765 5.472H114.933C114.72 5.472 114.613 5.568 114.613 5.76V13.568C114.613 13.76 114.72 13.856 114.933 13.856ZM140.345 24H133.561C132.089 24 130.926 23.584 130.073 22.752C129.241 21.92 128.825 20.7573 128.825 19.264V12.416C128.825 10.9227 129.241 9.76 130.073 8.928C130.926 8.096 132.089 7.68 133.561 7.68H136.249C137.721 7.68 138.873 8.096 139.705 8.928C140.537 9.76 140.953 10.9227 140.953 12.416V16.48C140.953 16.8 140.803 16.96 140.505 16.96H131.449C131.235 16.96 131.129 17.056 131.129 17.248V19.2C131.129 21.056 132.025 21.984 133.817 21.984H140.345C140.643 21.984 140.793 22.1333 140.793 22.432V23.584C140.793 23.8613 140.643 24 140.345 24ZM131.449 15.264H138.361C138.574 15.264 138.681 15.1573 138.681 14.944V12.48C138.681 10.6453 137.785 9.728 135.993 9.728H133.817C132.025 9.728 131.129 10.6453 131.129 12.48V14.944C131.129 15.1573 131.235 15.264 131.449 15.264ZM151.071 23.136H149.279C147.828 23.136 146.697 22.72 145.887 21.888C145.076 21.056 144.671 19.8933 144.671 18.4V12.416C144.671 10.9227 145.087 9.76 145.919 8.928C146.772 8.096 147.935 7.68 149.407 7.68H156.351C156.649 7.68 156.799 7.82933 156.799 8.128V24C156.799 25.472 156.372 26.624 155.519 27.456C154.687 28.3093 153.535 28.736 152.063 28.736H146.175C145.855 28.736 145.695 28.5867 145.695 28.288V27.104C145.695 26.8053 145.855 26.656 146.175 26.656H151.775C153.567 26.656 154.463 25.7387 154.463 23.904V21.44H154.335C153.78 22.5707 152.692 23.136 151.071 23.136ZM154.463 18.144V10.016C154.463 9.824 154.356 9.728 154.143 9.728H149.695C147.903 9.728 147.007 10.656 147.007 12.512V18.304C147.007 20.16 147.903 21.088 149.695 21.088H151.487C152.447 21.088 153.183 20.832 153.695 20.32C154.207 19.808 154.463 19.0827 154.463 18.144ZM161.367 4.992V1.984C161.367 1.68533 161.506 1.536 161.783 1.536H163.255C163.554 1.536 163.703 1.68533 163.703 1.984V4.992C163.703 5.29067 163.554 5.44 163.255 5.44H161.783C161.506 5.44 161.367 5.29067 161.367 4.992ZM161.367 23.552V8.128C161.367 7.82933 161.506 7.68 161.783 7.68H163.255C163.554 7.68 163.703 7.82933 163.703 8.128V23.552C163.703 23.8507 163.554 24 163.255 24H161.815C161.516 24 161.367 23.8507 161.367 23.552ZM173.806 24H168.11C167.811 24 167.662 23.8507 167.662 23.552V22.432C167.662 22.1547 167.811 22.016 168.11 22.016H173.486C175.15 22.016 175.982 21.3973 175.982 20.16V19.552C175.982 18.4213 175.438 17.6427 174.35 17.216L170.574 15.616C169.486 15.168 168.707 14.6453 168.238 14.048C167.768 13.4293 167.534 12.6187 167.534 11.616C167.534 8.992 168.974 7.68 171.854 7.68H177.102C177.4 7.68 177.55 7.82933 177.55 8.128V9.248C177.55 9.52533 177.4 9.664 177.102 9.664H172.27C171.502 9.664 170.915 9.824 170.51 10.144C170.126 10.464 169.934 10.8373 169.934 11.264V11.808C169.934 12.704 170.542 13.3867 171.758 13.856L175.534 15.552C176.643 15.9787 177.39 16.544 177.774 17.248C178.179 17.952 178.382 18.9227 178.382 20.16C178.382 22.72 176.856 24 173.806 24ZM182.721 9.728H180.961C180.663 9.728 180.513 9.58933 180.513 9.312V8.128C180.513 7.82933 180.663 7.68 180.961 7.68H182.721C182.935 7.68 183.041 7.584 183.041 7.392V4.64C183.041 4.34133 183.191 4.192 183.489 4.192H184.929C185.207 4.192 185.345 4.34133 185.345 4.64V7.392C185.345 7.584 185.463 7.68 185.697 7.68H189.089C189.409 7.68 189.569 7.82933 189.569 8.128V9.312C189.569 9.58933 189.409 9.728 189.089 9.728H185.697C185.463 9.728 185.345 9.824 185.345 10.016V19.232C185.345 21.0453 186.284 21.952 188.161 21.952H189.409C189.729 21.952 189.889 22.1013 189.889 22.4V23.584C189.889 23.8613 189.729 24 189.409 24H187.873C186.401 24 185.228 23.5947 184.353 22.784C183.479 21.952 183.041 20.8 183.041 19.328V10.016C183.041 9.824 182.935 9.728 182.721 9.728ZM195.158 24H193.718C193.419 24 193.27 23.8507 193.27 23.552V8.128C193.27 7.82933 193.419 7.68 193.718 7.68H195.158C195.456 7.68 195.606 7.82933 195.606 8.128V9.408H195.734C195.947 8.93867 196.352 8.53333 196.95 8.192C197.547 7.85067 198.251 7.68 199.062 7.68H200.31C200.587 7.68 200.726 7.82933 200.726 8.128V9.312C200.726 9.46133 200.694 9.57867 200.63 9.664C200.566 9.728 200.459 9.74933 200.31 9.728H198.582C197.622 9.728 196.886 10.016 196.374 10.592C195.862 11.168 195.606 11.9573 195.606 12.96V23.552C195.606 23.8507 195.456 24 195.158 24ZM204.925 29.024H203.517C203.219 29.024 203.069 28.8747 203.069 28.576V27.392C203.069 27.0933 203.219 26.944 203.517 26.944H204.317C205.683 26.944 206.643 26.56 207.197 25.792C207.645 25.1733 208.051 24.288 208.413 23.136H207.485C207.229 23.136 207.048 22.9867 206.941 22.688L202.237 8.128C202.152 7.82933 202.259 7.68 202.557 7.68H204.093C204.371 7.68 204.552 7.82933 204.637 8.128L208.765 21.312H208.893L213.021 8.128C213.085 7.82933 213.256 7.68 213.533 7.68H215.005C215.368 7.68 215.496 7.84 215.389 8.16L210.621 23.36C210.088 25.1733 209.405 26.5707 208.573 27.552C207.763 28.5333 206.547 29.024 204.925 29.024Z" fill="#6B7683"/>
<rect x="34.0703" width="10" height="10" transform="rotate(45 34.0703 0)" fill="#00B6C0"/>
<rect x="7.07129" width="10" height="10" transform="rotate(45 7.07129 0)" fill="#00B6C0"/>
<rect x="20.4634" y="5" width="16.213" height="16.213" transform="rotate(45 20.4634 5)" fill="#00B6C0"/>
</svg>
