<svg width="186" height="35" viewBox="0 0 186 35" fill="none" xmlns="http://www.w3.org/2000/svg">
<path d="M84.825 29H83.25C82.9667 29 82.825 28.8583 82.825 28.575V13.35C82.825 13.0667 82.9667 12.925 83.25 12.925H89.1C90.3167 12.925 91.2667 13.275 91.95 13.975C92.65 14.6583 93 15.6083 93 16.825V18.925C93 20.8417 92.2083 22.05 90.625 22.55V22.65L93.4 28.5C93.5833 28.8333 93.475 29 93.075 29H91.525C91.125 29 90.8667 28.8583 90.75 28.575L88.075 22.825H85.55C85.35 22.825 85.25 22.9083 85.25 23.075V28.575C85.25 28.8583 85.1083 29 84.825 29ZM85.525 20.825H88.7C89.9333 20.825 90.55 20.2167 90.55 19V16.9C90.55 15.6667 89.9333 15.05 88.7 15.05H85.525C85.3417 15.05 85.25 15.1333 85.25 15.3V20.575C85.25 20.7417 85.3417 20.825 85.525 20.825ZM106.05 29H98.0498C97.7665 29 97.6248 28.8583 97.6248 28.575V13.35C97.6248 13.0667 97.7665 12.925 98.0498 12.925H106.05C106.316 12.925 106.45 13.0667 106.45 13.35V14.625C106.45 14.9083 106.316 15.05 106.05 15.05H100.35C100.15 15.05 100.05 15.1333 100.05 15.3V19.525C100.05 19.6917 100.15 19.775 100.35 19.775H105.175C105.475 19.775 105.625 19.9167 105.625 20.2V21.475C105.625 21.7583 105.475 21.9 105.175 21.9H100.35C100.15 21.9 100.05 21.9833 100.05 22.15V26.6C100.05 26.7833 100.15 26.875 100.35 26.875H106.05C106.316 26.875 106.45 27.0167 106.45 27.3V28.575C106.45 28.8583 106.316 29 106.05 29ZM117.187 29H114.512C113.278 29 112.32 28.6583 111.637 27.975C110.97 27.2917 110.637 26.3417 110.637 25.125V16.8C110.637 15.5667 110.97 14.6167 111.637 13.95C112.32 13.2667 113.278 12.925 114.512 12.925H117.187C118.42 12.925 119.37 13.2667 120.037 13.95C120.72 14.6167 121.062 15.5667 121.062 16.8V17.7C121.062 18 120.92 18.15 120.637 18.15H119.062C118.778 18.15 118.637 18 118.637 17.7V16.9C118.637 15.6667 118.037 15.05 116.837 15.05H114.862C113.662 15.05 113.062 15.6667 113.062 16.9V25.025C113.062 26.2583 113.662 26.875 114.862 26.875H116.837C118.037 26.875 118.637 26.2583 118.637 25.025V22.775C118.637 22.6083 118.545 22.525 118.362 22.525H116.337C116.053 22.525 115.912 22.3833 115.912 22.1V20.825C115.912 20.5417 116.053 20.4 116.337 20.4H120.537C120.887 20.4 121.062 20.575 121.062 20.925V25.125C121.062 26.3417 120.72 27.2917 120.037 27.975C119.353 28.6583 118.403 29 117.187 29ZM128.261 13.35V28.575C128.261 28.8583 128.119 29 127.836 29H126.261C125.977 29 125.836 28.8583 125.836 28.575V13.35C125.836 13.0667 125.977 12.925 126.261 12.925H127.836C128.119 12.925 128.261 13.0667 128.261 13.35ZM132.984 25.1V24.45C132.984 24.1667 133.126 24.025 133.409 24.025H135.009C135.292 24.025 135.434 24.1667 135.434 24.45V24.9C135.434 25.6 135.584 26.1083 135.884 26.425C136.201 26.725 136.717 26.875 137.434 26.875H139.159C139.876 26.875 140.392 26.7167 140.709 26.4C141.026 26.0667 141.184 25.5333 141.184 24.8V24.225C141.184 23.6917 140.976 23.275 140.559 22.975C140.159 22.6583 139.659 22.4583 139.059 22.375C138.459 22.275 137.801 22.1417 137.084 21.975C136.367 21.8083 135.709 21.6167 135.109 21.4C134.509 21.1833 134.001 20.775 133.584 20.175C133.184 19.575 132.984 18.8083 132.984 17.875V16.825C132.984 15.6083 133.326 14.6583 134.009 13.975C134.709 13.275 135.667 12.925 136.884 12.925H139.534C140.767 12.925 141.726 13.275 142.409 13.975C143.109 14.6583 143.459 15.6083 143.459 16.825V17.375C143.459 17.6583 143.317 17.8 143.034 17.8H141.434C141.151 17.8 141.009 17.6583 141.009 17.375V17.05C141.009 16.3333 140.851 15.825 140.534 15.525C140.234 15.2083 139.726 15.05 139.009 15.05H137.434C136.717 15.05 136.201 15.2167 135.884 15.55C135.584 15.8667 135.434 16.4167 135.434 17.2V17.975C135.434 18.725 135.976 19.2333 137.059 19.5C137.542 19.6167 138.067 19.7167 138.634 19.8C139.217 19.8833 139.801 20.0083 140.384 20.175C140.967 20.3417 141.501 20.5667 141.984 20.85C142.467 21.1167 142.859 21.5333 143.159 22.1C143.459 22.65 143.609 23.325 143.609 24.125V25.1C143.609 26.3167 143.259 27.275 142.559 27.975C141.876 28.6583 140.926 29 139.709 29H136.909C135.692 29 134.734 28.6583 134.034 27.975C133.334 27.275 132.984 26.3167 132.984 25.1ZM152.63 29H151.055C150.755 29 150.605 28.8583 150.605 28.575V15.3C150.605 15.1333 150.522 15.05 150.355 15.05H147.205C146.905 15.05 146.755 14.9083 146.755 14.625V13.35C146.755 13.0667 146.905 12.925 147.205 12.925H156.48C156.78 12.925 156.93 13.0667 156.93 13.35V14.625C156.93 14.9083 156.78 15.05 156.48 15.05H153.33C153.147 15.05 153.055 15.1333 153.055 15.3V28.575C153.055 28.8583 152.914 29 152.63 29ZM162.32 29H160.745C160.462 29 160.32 28.8583 160.32 28.575V13.35C160.32 13.0667 160.462 12.925 160.745 12.925H166.595C167.812 12.925 168.762 13.275 169.445 13.975C170.145 14.6583 170.495 15.6083 170.495 16.825V18.925C170.495 20.8417 169.703 22.05 168.12 22.55V22.65L170.895 28.5C171.078 28.8333 170.97 29 170.57 29H169.02C168.62 29 168.362 28.8583 168.245 28.575L165.57 22.825H163.045C162.845 22.825 162.745 22.9083 162.745 23.075V28.575C162.745 28.8583 162.603 29 162.32 29ZM163.02 20.825H166.195C167.428 20.825 168.045 20.2167 168.045 19V16.9C168.045 15.6667 167.428 15.05 166.195 15.05H163.02C162.837 15.05 162.745 15.1333 162.745 15.3V20.575C162.745 20.7417 162.837 20.825 163.02 20.825ZM180.445 29H178.845C178.562 29 178.42 28.8583 178.42 28.575V23.05L173.745 13.375C173.678 13.2417 173.678 13.1333 173.745 13.05C173.812 12.9667 173.903 12.925 174.02 12.925H176.02C176.237 12.925 176.403 13.0667 176.52 13.35L179.595 20.225H179.745L182.77 13.35C182.87 13.0667 183.037 12.925 183.27 12.925H185.27C185.403 12.925 185.495 12.9667 185.545 13.05C185.612 13.1333 185.612 13.2417 185.545 13.375L180.87 23.05V28.575C180.87 28.8583 180.728 29 180.445 29Z" fill="#6B7683"/>
<path d="M8 1V25C8 29.9706 12.0294 34 17 34H19C23.9706 34 28 29.9706 28 25V8L48 15V8.5H39V18H48V24H39V28H52V14H65V20H59V8H64C68.6944 8 72.5 11.8056 72.5 16.5V16.5C72.5 22.5 67.5 24.5 67.5 24.5L76 34H67L60.5 26H59V34H32V14H21V28H15V8H1" stroke="#1A6899" stroke-width="2" stroke-linecap="round" stroke-linejoin="round"/>
</svg>
