<svg width="10" height="18" viewBox="0 0 10 18" fill="none" xmlns="http://www.w3.org/2000/svg">
<path fill-rule="evenodd" clip-rule="evenodd" d="M1.5 5.59339C1.5 3.93684 2.86557 2.49854 5 2.49854C7.13443 2.49854 8.5 3.93684 8.5 5.59339C8.5 6.1029 8.25924 6.59134 7.79446 7.08817C7.32589 7.58904 6.68702 8.03591 6.0206 8.44881C4.93402 9.12204 4.25 10.2932 4.25 11.5921V12.0019C4.25 12.4161 4.58579 12.7519 5 12.7519C5.41421 12.7519 5.75 12.4161 5.75 12.0019V11.5921C5.75 10.833 6.14777 10.1346 6.81063 9.7239C7.50248 9.29523 8.2808 8.76396 8.88986 8.11292C9.5027 7.45783 10 6.62056 10 5.59339C10 3.00303 7.85339 0.998535 5 0.998535C2.14661 0.998535 0 3.00303 0 5.59339C0 6.0076 0.335786 6.34339 0.75 6.34339C1.16421 6.34339 1.5 6.0076 1.5 5.59339ZM5 17.0019C5.55228 17.0019 6 16.5542 6 16.0019C6 15.4496 5.55228 15.0019 5 15.0019C4.44772 15.0019 4 15.4496 4 16.0019C4 16.5542 4.44772 17.0019 5 17.0019Z" fill="#00B6C0"/>
</svg>

