<svg width="16" height="19" viewBox="0 0 16 19" fill="none" xmlns="http://www.w3.org/2000/svg">
<path fill-rule="evenodd" clip-rule="evenodd" d="M1.58594 6.70508C1.58594 3.16269 4.45761 0.291016 8 0.291016C11.5424 0.291016 14.4141 3.16269 14.4141 6.70508V11.379L15.9331 14.7315C16.0383 14.9636 16.0184 15.2332 15.8803 15.4474C15.7422 15.6616 15.5048 15.791 15.25 15.791H10.9585C10.7205 17.2099 9.4865 18.291 8 18.291C6.5135 18.291 5.27952 17.2099 5.04148 15.791H0.750002C0.49516 15.791 0.257754 15.6616 0.11966 15.4474C-0.0184337 15.2332 -0.0383191 14.9636 0.066862 14.7315L1.58594 11.379V6.70508ZM6.58535 15.791C6.79127 16.3736 7.34689 16.791 8 16.791C8.65311 16.791 9.20873 16.3736 9.41465 15.791H6.58535ZM8 1.79102C5.28604 1.79102 3.08594 3.99112 3.08594 6.70508V11.541C3.08594 11.6478 3.06314 11.7533 3.01908 11.8506L1.91325 14.291H14.0868L12.9809 11.8506C12.9369 11.7533 12.9141 11.6478 12.9141 11.541V6.70508C12.9141 3.99112 10.714 1.79102 8 1.79102Z" fill="#00B6C0"/>
</svg>
