<svg width="24" height="24" viewBox="0 0 24 24" fill="none" xmlns="http://www.w3.org/2000/svg">
<path fill-rule="evenodd" clip-rule="evenodd" d="M5.58594 9.70508C5.58594 6.16269 8.45761 3.29102 12 3.29102C15.5424 3.29102 18.4141 6.16269 18.4141 9.70508V14.379L19.9331 17.7315C20.0383 17.9636 20.0184 18.2332 19.8803 18.4474C19.7422 18.6616 19.5048 18.791 19.25 18.791H14.9585C14.7205 20.2099 13.4865 21.291 12 21.291C10.5135 21.291 9.27952 20.2099 9.04148 18.791H4.75C4.49516 18.791 4.25775 18.6616 4.11966 18.4474C3.98157 18.2332 3.96168 17.9636 4.06686 17.7315L5.58594 14.379V9.70508ZM10.5854 18.791C10.7913 19.3736 11.3469 19.791 12 19.791C12.6531 19.791 13.2087 19.3736 13.4146 18.791H10.5854ZM12 4.79102C9.28604 4.79102 7.08594 6.99112 7.08594 9.70508V14.541C7.08594 14.6478 7.06314 14.7533 7.01908 14.8506L5.91325 17.291H18.0868L16.9809 14.8506C16.9369 14.7533 16.9141 14.6478 16.9141 14.541V9.70508C16.9141 6.99112 14.714 4.79102 12 4.79102Z" fill="#00B6C0"/>
</svg>
