<svg width="24" height="24" viewBox="0 0 24 24" fill="none" xmlns="http://www.w3.org/2000/svg">
<path fill-rule="evenodd" clip-rule="evenodd" d="M8.5 8.59339C8.5 6.93684 9.86557 5.49854 12 5.49854C14.1344 5.49854 15.5 6.93684 15.5 8.59339C15.5 9.1029 15.2592 9.59134 14.7945 10.0882C14.3259 10.589 13.687 11.0359 13.0206 11.4488C11.934 12.122 11.25 13.2932 11.25 14.5921V15.0019C11.25 15.4161 11.5858 15.7519 12 15.7519C12.4142 15.7519 12.75 15.4161 12.75 15.0019V14.5921C12.75 13.833 13.1478 13.1346 13.8106 12.7239C14.5025 12.2952 15.2808 11.764 15.8899 11.1129C16.5027 10.4578 17 9.62056 17 8.59339C17 6.00303 14.8534 3.99854 12 3.99854C9.14661 3.99854 7 6.00303 7 8.59339C7 9.0076 7.33579 9.34339 7.75 9.34339C8.16421 9.34339 8.5 9.0076 8.5 8.59339ZM12 20.0019C12.5523 20.0019 13 19.5542 13 19.0019C13 18.4496 12.5523 18.0019 12 18.0019C11.4477 18.0019 11 18.4496 11 19.0019C11 19.5542 11.4477 20.0019 12 20.0019Z" fill="#00B6C0"/>
</svg>
