<svg width="12" height="12" viewBox="0 0 12 12" fill="none" xmlns="http://www.w3.org/2000/svg">
<path fill-rule="evenodd" clip-rule="evenodd" d="M11.7917 0.232144C12.0777 0.531768 12.0666 1.00651 11.767 1.29252L6.84058 5.99503L11.7683 10.7071C12.0677 10.9934 12.0783 11.4681 11.7921 11.7675C11.5058 12.0669 11.031 12.0775 10.7317 11.7912L5.78977 7.06563L1.2929 11.7683C1.00663 12.0677 0.531875 12.0783 0.232504 11.7921C-0.066868 11.5058 -0.0774904 11.031 0.208778 10.7317L4.72853 6.00503L0.207485 1.26869C-0.0785198 0.96907 -0.0674792 0.494324 0.232144 0.20832C0.531768 -0.0776844 1.00651 -0.0666438 1.29252 0.23298L5.77979 4.93393L10.7313 0.207485C11.0309 -0.0785198 11.5057 -0.0674792 11.7917 0.232144Z" fill="#6B7683"/>
</svg>
