<svg width="25" height="24" viewBox="0 0 25 24" fill="none" xmlns="http://www.w3.org/2000/svg">
<path fill-rule="evenodd" clip-rule="evenodd" d="M10.25 5.5C8.04021 5.5 6.25 7.28955 6.25 9.4956C6.25 9.86205 6.29919 10.2158 6.3909 10.5513C6.44842 10.7617 6.41152 10.9866 6.28981 11.1676C6.16811 11.3486 5.97365 11.4676 5.75713 11.4937C4.76688 11.613 4 12.4564 4 13.4767C4 14.5792 4.89477 15.4741 6 15.4741H7.03448C7.4487 15.4741 7.78448 15.8099 7.78448 16.2241C7.78448 16.6383 7.4487 16.9741 7.03448 16.9741H6C4.06766 16.9741 2.5 15.4089 2.5 13.4767C2.5 11.968 3.45527 10.6837 4.7939 10.1926C4.76491 9.96412 4.75 9.73147 4.75 9.4956C4.75 6.45981 7.21309 4 10.25 4C12.2784 4 14.0493 5.09704 15.0027 6.72835C15.3922 6.57934 15.8148 6.49769 16.2558 6.49769C18.1914 6.49769 19.7617 8.0655 19.7617 10.001C19.7617 10.0214 19.7615 10.0418 19.7611 10.0622C21.3278 10.4094 22.5 11.8058 22.5 13.4767C22.5 15.4089 20.9323 16.9741 19 16.9741H17.9655C17.5513 16.9741 17.2155 16.6383 17.2155 16.2241C17.2155 15.8099 17.5513 15.4741 17.9655 15.4741H19C20.1052 15.4741 21 14.5792 21 13.4767C21 12.3741 20.1052 11.4792 19 11.4792H18.9142C18.6804 11.4792 18.4599 11.3701 18.318 11.1841C18.1761 10.9982 18.1291 10.7567 18.1909 10.5311C18.2369 10.3631 18.2617 10.1855 18.2617 10.001C18.2617 8.89524 17.3643 7.99769 16.2558 7.99769C15.8245 7.99769 15.427 8.13282 15.1006 8.363C14.9127 8.4955 14.6745 8.53451 14.4541 8.46883C14.2338 8.40316 14.0558 8.24005 13.9711 8.02629C13.3846 6.54568 11.9389 5.5 10.25 5.5ZM12.4564 12.0079C12.6649 12.0079 12.8639 12.0946 13.0058 12.2473L16.2558 15.744C16.5378 16.0474 16.5204 16.522 16.217 16.804C15.9136 17.086 15.4391 17.0686 15.1571 16.7652L13.2064 14.6665L13.2064 19.25C13.2064 19.6642 12.8706 20 12.4564 20C12.0422 20 11.7064 19.6642 11.7064 19.25L11.7064 14.6665L9.75578 16.7652C9.47379 17.0686 8.99923 17.086 8.69583 16.804C8.39243 16.522 8.37507 16.0474 8.65706 15.744L11.9071 12.2473C12.049 12.0946 12.248 12.0079 12.4564 12.0079Z" fill="#6B7683"/>
</svg>
