<svg width="24" height="24" viewBox="0 0 24 24" fill="none" xmlns="http://www.w3.org/2000/svg">
<path fill-rule="evenodd" clip-rule="evenodd" d="M5.75 3.5C5.61193 3.5 5.5 3.61193 5.5 3.75V20.25C5.5 20.3881 5.61193 20.5 5.75 20.5H18.25C18.3881 20.5 18.5 20.3881 18.5 20.25V9.25H14.25C13.2835 9.25 12.5 8.4665 12.5 7.5V3.5H5.75ZM14 4.50755L17.3834 7.75H14.25C14.1119 7.75 14 7.63807 14 7.5V4.50755ZM4 3.75C4 2.7835 4.7835 2 5.75 2H13.25C13.4434 2 13.6293 2.0747 13.7689 2.20851L19.7689 7.95851C19.9165 8.09997 20 8.29555 20 8.5V20.25C20 21.2165 19.2165 22 18.25 22H5.75C4.7835 22 4 21.2165 4 20.25V3.75ZM7 11.2375C7 10.8233 7.33579 10.4875 7.75 10.4875H12.25C12.6642 10.4875 13 10.8233 13 11.2375C13 11.6518 12.6642 11.9875 12.25 11.9875H7.75C7.33579 11.9875 7 11.6518 7 11.2375ZM7 14.2375C7 13.8233 7.33579 13.4875 7.75 13.4875H16.25C16.6642 13.4875 17 13.8233 17 14.2375C17 14.6518 16.6642 14.9875 16.25 14.9875H7.75C7.33579 14.9875 7 14.6518 7 14.2375ZM7 17.2375C7 16.8233 7.33579 16.4875 7.75 16.4875H16.25C16.6642 16.4875 17 16.8233 17 17.2375C17 17.6518 16.6642 17.9875 16.25 17.9875H7.75C7.33579 17.9875 7 17.6518 7 17.2375Z" fill="#6B7683"/>
</svg>
