<svg width="225" height="42" viewBox="0 0 225 42" fill="none" xmlns="http://www.w3.org/2000/svg">
<g clip-path="url(#clip0)">
<path fill-rule="evenodd" clip-rule="evenodd" d="M204.956 18.9168C207.861 15.7042 212.827 15.45 216.047 18.3494C219.266 21.2497 219.521 26.2049 216.615 29.4183C213.709 32.6309 208.744 32.8851 205.524 29.9857C202.304 27.0854 202.05 22.1302 204.956 18.9168ZM203.647 17.7379C207.205 13.8031 213.286 13.4922 217.228 17.0438C221.17 20.5946 221.482 26.6625 217.924 30.5972C214.366 34.532 208.285 34.8429 204.343 31.2921C200.4 27.7405 200.089 21.6726 203.647 17.7379Z" fill="url(#paint0_linear)"/>
<path fill-rule="evenodd" clip-rule="evenodd" d="M212.212 32.9715C212.264 32.8682 212.295 32.7556 212.303 32.6403C212.311 32.525 212.297 32.4092 212.26 32.2995C212.224 32.1898 212.166 32.0884 212.09 32.001C212.015 31.9137 211.922 31.8421 211.819 31.7904L211.423 32.5773C211.819 31.7904 211.819 31.7911 211.819 31.7911L211.81 31.7859L211.758 31.7579C211.685 31.7175 211.612 31.6758 211.54 31.6327C211.26 31.4652 210.988 31.2855 210.725 31.094C209.808 30.4268 208.975 29.6512 208.245 28.784C206.469 26.6804 204.738 23.383 204.981 18.5825C204.987 18.467 204.97 18.3515 204.931 18.2426C204.892 18.1336 204.832 18.0334 204.754 17.9477C204.677 17.8619 204.583 17.7922 204.478 17.7427C204.374 17.6931 204.26 17.6646 204.145 17.6588C204.029 17.653 203.913 17.67 203.804 17.7088C203.695 17.7477 203.595 17.8076 203.509 17.8851C203.423 17.9627 203.354 18.0564 203.304 18.1609C203.254 18.2653 203.226 18.3785 203.22 18.494C202.951 23.8089 204.881 27.5314 206.895 29.918C207.718 30.8941 208.657 31.7672 209.69 32.5183C210.076 32.7984 210.402 33.0047 210.636 33.1447C210.753 33.2143 210.872 33.2811 210.992 33.3451L211.016 33.3576L211.023 33.3613L211.026 33.3628H211.027C211.028 33.3628 211.028 33.3635 211.423 32.5773L211.028 33.3635C211.463 33.5816 211.993 33.4062 212.212 32.9715Z" fill="#23CFC0"/>
<path fill-rule="evenodd" clip-rule="evenodd" d="M207.9 15.4383C207.673 15.385 207.433 15.4242 207.235 15.5471C207.036 15.6701 206.894 15.8668 206.841 16.0941C205.665 21.109 207.438 25.295 209.443 28.1753C210.291 29.387 211.262 30.508 212.341 31.5206C212.753 31.9082 213.103 32.2059 213.353 32.41C213.479 32.5116 213.578 32.5898 213.649 32.6435L213.732 32.7062L213.755 32.7239L213.763 32.729L213.765 32.7305H213.766C213.766 32.7312 213.766 32.732 214.275 32.0305L213.766 32.732C213.956 32.869 214.191 32.9253 214.422 32.8885C214.653 32.8517 214.86 32.7249 214.997 32.536C215.134 32.347 215.19 32.1113 215.154 31.8808C215.117 31.6504 214.99 31.4439 214.801 31.3069L214.283 32.0187L214.801 31.3069H214.801L214.798 31.3047L214.784 31.2944C214.677 31.2135 214.571 31.1305 214.467 31.0453C214.246 30.8655 213.927 30.5951 213.549 30.24C212.56 29.3108 211.669 28.2824 210.891 27.171C209.054 24.5331 207.535 20.857 208.557 16.4956C208.584 16.3831 208.588 16.2664 208.569 16.1524C208.55 16.0383 208.509 15.929 208.448 15.8308C208.387 15.7325 208.307 15.6473 208.213 15.58C208.119 15.5126 208.013 15.4645 207.9 15.4383Z" fill="#23CFC0"/>
<path fill-rule="evenodd" clip-rule="evenodd" d="M219.121 28.4097C219.257 28.2202 219.312 27.9844 219.275 27.7542C219.237 27.524 219.109 27.3182 218.919 27.1821L218.404 27.8968C218.919 27.1821 218.919 27.1821 218.919 27.1813L218.917 27.1806L218.915 27.1784L218.91 27.1747L218.896 27.1659C218.848 27.1329 218.798 27.1017 218.747 27.0723C218.617 26.9963 218.483 26.9262 218.346 26.8623C217.837 26.629 217.308 26.4399 216.766 26.2971C215.335 25.9044 213.11 25.5492 209.832 25.6229C209.713 25.6216 209.596 25.644 209.486 25.6889C209.377 25.7338 209.278 25.8002 209.195 25.8842C209.111 25.9683 209.046 26.0681 209.002 26.1779C208.959 26.2877 208.937 26.4052 208.94 26.5233C208.943 26.6414 208.969 26.7578 209.018 26.8655C209.067 26.9732 209.136 27.07 209.223 27.1502C209.31 27.2304 209.412 27.2923 209.524 27.3322C209.635 27.3721 209.753 27.3892 209.871 27.3825C213.004 27.3118 215.056 27.6529 216.299 27.9941C216.92 28.1636 217.34 28.3345 217.593 28.4539C217.697 28.5025 217.799 28.5566 217.898 28.616L217.899 28.6175C218.294 28.893 218.838 28.8017 219.121 28.4097ZM220.277 24.0756C220.526 23.6578 220.389 23.1177 219.971 22.8693L219.52 23.6253C219.971 22.8693 219.97 22.8686 219.969 22.8686H219.968L219.966 22.8664L219.96 22.8627L219.944 22.8539L219.895 22.8266C219.839 22.7969 219.784 22.7684 219.727 22.7411C219.531 22.6468 219.33 22.5618 219.125 22.4862C218.402 22.223 217.652 22.0403 216.888 21.9417C214.949 21.6786 212.172 21.7796 208.693 23.1368C208.586 23.179 208.487 23.2419 208.404 23.322C208.32 23.4021 208.254 23.4978 208.207 23.6037C208.161 23.7096 208.136 23.8236 208.134 23.9391C208.131 24.0546 208.152 24.1695 208.194 24.2771C208.236 24.3847 208.299 24.4829 208.38 24.5662C208.46 24.6495 208.556 24.7162 208.662 24.7625C208.768 24.8088 208.882 24.8337 208.997 24.836C209.113 24.8382 209.228 24.8177 209.336 24.7756C212.532 23.5281 215.007 23.4625 216.651 23.685C217.285 23.7662 217.908 23.9169 218.508 24.1345C218.702 24.2062 218.89 24.2896 219.074 24.3843L220.277 24.0756ZM220.277 24.0748C220.158 24.2747 219.965 24.4193 219.739 24.4773C219.514 24.5353 219.274 24.5019 219.074 24.3843L220.277 24.0748ZM218.83 19.4246C218.871 19.1948 218.818 18.9583 218.684 18.7671C218.55 18.5759 218.346 18.4456 218.116 18.4048L217.962 19.2706C218.116 18.4048 218.115 18.4048 218.115 18.4041H218.113L218.107 18.4033L218.091 18.4004C218.006 18.3861 217.922 18.3738 217.836 18.3636C217.598 18.3322 217.359 18.3074 217.119 18.2891C216.306 18.2267 215.489 18.2217 214.675 18.2744C212.71 18.4026 210.134 18.9096 207.863 20.4798C207.768 20.5456 207.686 20.6294 207.624 20.7266C207.561 20.8237 207.518 20.9322 207.498 21.0459C207.477 21.1596 207.479 21.2762 207.503 21.3891C207.528 21.5021 207.574 21.6091 207.64 21.704C207.706 21.799 207.79 21.8801 207.887 21.9427C207.985 22.0052 208.093 22.048 208.207 22.0687C208.321 22.0893 208.438 22.0873 208.551 22.0629C208.664 22.0384 208.771 21.992 208.866 21.9262C210.778 20.605 213.001 20.1467 214.789 20.031C215.519 19.9836 216.252 19.9878 216.982 20.0436C217.244 20.0639 217.505 20.0929 217.765 20.1305L217.801 20.1364L217.808 20.1371C218.288 20.2219 218.745 19.9028 218.83 19.4246ZM217.809 20.1371H217.808H217.809Z" fill="#23CFC0"/>
<path d="M26.7254 30.5585H24.6938C24.44 30.5585 24.3552 30.4111 24.44 30.1149L27.7833 17.4228C27.8822 17.1274 28.0939 16.9793 28.4177 16.9793H31.2328C31.5854 16.9793 31.7972 17.1274 31.8672 17.4228L35.2105 30.1149C35.2954 30.4104 35.2105 30.5585 34.9567 30.5585H32.9258C32.7709 30.5585 32.6647 30.5305 32.6086 30.4738C32.5518 30.403 32.509 30.2837 32.481 30.1149L31.8886 27.7917H27.7626L27.1703 30.1149C27.1415 30.2844 27.0921 30.4038 27.022 30.4738C26.9652 30.5305 26.8671 30.5585 26.7254 30.5585ZM29.7943 19.5354L28.2702 25.6379H31.4017L29.8784 19.5346H29.7936L29.7943 19.5354ZM40.3877 30.5585H38.5892C38.2927 30.5585 38.1444 30.4111 38.1444 30.1149V17.4228C38.1444 17.1274 38.2927 16.9793 38.5892 16.9793H43.6248C44.7254 16.9793 45.5856 17.2821 46.2067 17.8878C46.8272 18.4927 47.1377 19.3445 47.1377 20.4431V22.09C47.1377 23.6816 46.5107 24.7367 45.2544 25.2584V25.3424L47.5191 30.0508C47.6453 30.3898 47.5258 30.5585 47.1591 30.5585H45.4447C45.1909 30.5585 45.0072 30.5305 44.8951 30.4738C44.7822 30.4178 44.69 30.2977 44.6199 30.1149L42.5035 25.5539H41.0856C40.9159 25.5539 40.8318 25.6305 40.8318 25.786V30.1149C40.8318 30.4104 40.6843 30.5585 40.3877 30.5585ZM41.0649 23.3994H43.1379C43.5901 23.3994 43.9213 23.308 44.1331 23.1245C44.3448 22.9278 44.4503 22.6183 44.4503 22.1961V20.5485C44.4503 20.1123 44.3448 19.7955 44.1331 19.598C43.9213 19.4013 43.5901 19.3025 43.1386 19.3025H41.0649C40.91 19.3025 40.8318 19.3799 40.8318 19.5346V23.1673C40.8318 23.322 40.9093 23.3994 41.0649 23.3994ZM53.5683 17.4228V30.1149C53.5683 30.4104 53.42 30.5585 53.1235 30.5585H51.3249C51.0284 30.5585 50.8808 30.4111 50.8808 30.1149V17.4228C50.8808 17.1274 51.0284 16.9793 51.3249 16.9793H53.1235C53.42 16.9793 53.5683 17.1274 53.5683 17.4228ZM58.8923 30.5585H56.8607C56.6069 30.5585 56.5213 30.4111 56.6069 30.1149L59.9502 17.4228C60.049 17.1274 60.26 16.9793 60.5846 16.9793H63.399C63.7516 16.9793 63.9633 17.1274 64.0334 17.4228L67.3774 30.1149C67.4622 30.4104 67.3774 30.5585 67.1236 30.5585H65.092C64.9371 30.5585 64.8308 30.5305 64.7748 30.4738C64.718 30.403 64.6759 30.2837 64.6479 30.1149L64.0548 27.7917H59.9288L59.3364 30.1149C59.3084 30.2844 59.259 30.4038 59.1889 30.4738C59.1321 30.5305 59.0332 30.5585 58.8923 30.5585ZM61.9604 19.5354L60.4363 25.6379H63.5686L62.0445 19.5346L61.9604 19.5354ZM73.2318 28.236H75.5379C75.9894 28.236 76.3066 28.1439 76.4895 27.9611C76.6872 27.7637 76.7861 27.4402 76.7861 26.9893V20.5485C76.7861 20.0983 76.6872 19.7815 76.4895 19.598C76.3066 19.4013 75.9894 19.3025 75.5379 19.3025H73.2311C73.0762 19.3025 72.9987 19.3799 72.9987 19.5346V28.0031C72.9987 28.1579 73.0762 28.2353 73.2311 28.2353L73.2318 28.236ZM70.3105 30.1149V17.4228C70.3105 17.1274 70.4588 16.9793 70.7554 16.9793H75.982C77.0826 16.9793 77.9362 17.2821 78.5426 17.8878C79.163 18.4787 79.4735 19.3239 79.4735 20.4218V27.116C79.4735 28.2139 79.163 29.0657 78.5426 29.6714C77.9362 30.263 77.0826 30.5585 75.982 30.5585H70.7554C70.4595 30.5585 70.3105 30.4111 70.3105 30.1149ZM85.266 30.5585H83.5095C83.213 30.5585 83.0654 30.4111 83.0654 30.1149V17.4228C83.0654 17.1274 83.213 16.9793 83.5095 16.9793H85.0963C85.3929 16.9793 85.5906 17.078 85.6887 17.2755L89.9637 25.279H90.0478V17.4228C90.0478 17.1274 90.1961 16.9793 90.4926 16.9793H92.2491C92.5449 16.9793 92.6932 17.1274 92.6932 17.4228V30.1149C92.6932 30.4104 92.5449 30.5585 92.2491 30.5585H90.7044C90.3938 30.5585 90.1681 30.4178 90.0272 30.1356L85.7949 22.2801H85.7101V30.1149C85.7101 30.4104 85.5618 30.5585 85.266 30.5585ZM103.865 30.5585H96.9453C96.6495 30.5585 96.5013 30.4111 96.5013 30.1149V17.4228C96.5013 17.1274 96.6495 16.9793 96.9453 16.9793H103.865C104.148 16.9793 104.288 17.1274 104.288 17.4228V18.8597C104.288 19.1544 104.148 19.3018 103.865 19.3018H99.4425C99.2735 19.3018 99.1887 19.3799 99.1887 19.5346V22.2801C99.1887 22.4348 99.2735 22.5122 99.4425 22.5122H103.061C103.357 22.5122 103.505 22.6596 103.505 22.9558V24.3919C103.505 24.6874 103.357 24.8355 103.061 24.8355H99.4425C99.2735 24.8355 99.1887 24.9128 99.1887 25.0676V28.0031C99.1887 28.1579 99.2735 28.2353 99.4425 28.2353H103.865C104.148 28.2353 104.288 28.3826 104.288 28.6788V30.1149C104.288 30.4104 104.148 30.5585 103.865 30.5585ZM118.979 30.5585H116.672C115.558 30.5585 114.697 30.263 114.091 29.6714C113.484 29.0797 113.181 28.2286 113.181 27.116V20.4218C113.181 19.3091 113.484 18.4574 114.091 17.8664C114.697 17.2755 115.558 16.9793 116.672 16.9793H118.979C120.079 16.9793 120.933 17.2821 121.539 17.8878C122.16 18.4787 122.471 19.3239 122.471 20.4218V21.4143C122.471 21.7238 122.315 21.8785 122.004 21.8785H120.227C119.931 21.8785 119.783 21.7238 119.783 21.4143V20.5485C119.783 20.0983 119.684 19.7815 119.487 19.598C119.303 19.4013 118.986 19.3025 118.534 19.3025H117.096C116.658 19.3025 116.341 19.4013 116.143 19.598C115.96 19.7815 115.868 20.0976 115.868 20.5485V26.9893C115.868 27.4402 115.96 27.7637 116.143 27.9611C116.341 28.1439 116.658 28.2353 117.096 28.2353H118.534C118.986 28.2353 119.303 28.1439 119.487 27.9604C119.684 27.7637 119.783 27.4402 119.783 26.9893V26.1235C119.783 25.814 119.931 25.6593 120.227 25.6593H122.004C122.315 25.6593 122.471 25.814 122.471 26.1235V27.116C122.471 28.2139 122.16 29.0657 121.539 29.6714C120.933 30.263 120.079 30.5585 118.979 30.5585ZM133.243 30.5585H126.281C125.985 30.5585 125.837 30.4111 125.837 30.1149V17.4228C125.837 17.1274 125.985 16.9793 126.281 16.9793H128.079C128.376 16.9793 128.524 17.1274 128.524 17.4228V27.9818C128.524 28.1365 128.608 28.2146 128.778 28.2146H133.243C133.525 28.2146 133.666 28.3694 133.666 28.6788V30.1149C133.666 30.4104 133.525 30.5585 133.243 30.5585ZM139.194 17.4228V30.1149C139.194 30.4104 139.045 30.5585 138.749 30.5585H136.95C136.655 30.5585 136.506 30.4111 136.506 30.1149V17.4228C136.506 17.1274 136.655 16.9793 136.95 16.9793H138.749C139.045 16.9793 139.194 17.1274 139.194 17.4228ZM152.135 16.9793H155.267C155.563 16.9793 155.712 17.1274 155.712 17.4228V30.1149C155.712 30.4104 155.563 30.5585 155.267 30.5585H153.532C153.236 30.5585 153.088 30.4111 153.088 30.1149V20.1049H153.003L150.844 27.1794C150.76 27.4608 150.584 27.6016 150.315 27.6016H148.538C148.27 27.6016 148.093 27.4616 148.009 27.1794L145.809 20.0836H145.724V30.1149C145.724 30.2844 145.696 30.4038 145.639 30.4738C145.583 30.5305 145.463 30.5585 145.279 30.5585H143.544C143.248 30.5585 143.1 30.4111 143.1 30.1149V17.4228C143.1 17.1274 143.248 16.9793 143.544 16.9793H146.697C146.895 16.9793 147.029 17.078 147.099 17.2755L149.342 24.7301H149.469L151.733 17.2755C151.775 17.078 151.91 16.9793 152.135 16.9793ZM160.929 30.5585H158.898C158.644 30.5585 158.559 30.4111 158.644 30.1149L161.987 17.4228C162.086 17.1274 162.298 16.9793 162.622 16.9793H165.437C165.789 16.9793 166.001 17.1274 166.071 17.4228L169.415 30.1149C169.499 30.4104 169.415 30.5585 169.161 30.5585H167.129C166.974 30.5585 166.869 30.5305 166.812 30.4738C166.756 30.403 166.713 30.2837 166.685 30.1149L166.093 27.7917H161.966L161.374 30.1149C161.346 30.2844 161.296 30.4038 161.225 30.4738C161.169 30.5305 161.07 30.5585 160.929 30.5585ZM163.998 19.5354L162.474 25.6379H165.606L164.082 19.5346L163.998 19.5354ZM176.559 30.5585H174.782C174.471 30.5585 174.317 30.4111 174.317 30.1149V19.5339C174.317 19.3791 174.239 19.3018 174.083 19.3018H171.671C171.375 19.3018 171.227 19.1544 171.227 18.8582V17.4221C171.227 17.1266 171.375 16.9785 171.671 16.9785H179.67C179.966 16.9785 180.114 17.1266 180.114 17.4221V18.8589C180.114 19.1537 179.966 19.301 179.67 19.301H177.258C177.088 19.301 177.004 19.3791 177.004 19.5339V30.1149C177.004 30.4104 176.856 30.5585 176.559 30.5585ZM190.152 30.5585H183.232C182.937 30.5585 182.788 30.4111 182.788 30.1149V17.4228C182.788 17.1274 182.937 16.9793 183.232 16.9793H190.152C190.434 16.9793 190.576 17.1274 190.576 17.4228V18.8597C190.576 19.1544 190.434 19.3018 190.152 19.3018H185.73C185.56 19.3018 185.476 19.3799 185.476 19.5346V22.2801C185.476 22.4348 185.56 22.5122 185.73 22.5122H189.348C189.644 22.5122 189.792 22.6596 189.792 22.9558V24.3919C189.792 24.6874 189.644 24.8355 189.348 24.8355H185.73C185.56 24.8355 185.476 24.9128 185.476 25.0676V28.0031C185.476 28.1579 185.56 28.2353 185.73 28.2353H190.152C190.434 28.2353 190.576 28.3826 190.576 28.6788V30.1149C190.576 30.4104 190.434 30.5585 190.152 30.5585Z" fill="#1A6899"/>
<path fill-rule="evenodd" clip-rule="evenodd" d="M0.164358 34.5309C0.300359 34.341 0.506244 34.2128 0.73681 34.1744C0.967376 34.136 1.20378 34.1905 1.39411 34.3261C4.23796 36.3531 7.60337 36.8424 11.463 36.1719C15.3441 35.4977 19.6678 33.6592 24.322 31.1009C28.9695 28.547 33.8885 25.3093 38.9632 21.8786C40.0093 21.1712 41.062 20.4565 42.1206 19.7373C46.1831 16.9771 50.3224 14.1646 54.4528 11.5672C64.822 5.04618 75.3616 -0.27235 84.8485 0.0113347C89.6354 0.154282 94.1421 1.72228 98.1891 5.23333C102.219 8.72965 105.751 14.1145 108.685 21.8248C111.559 29.3752 114.806 34.1758 118.293 36.9699C121.748 39.7389 125.503 40.59 129.547 40.1176C133.63 39.6409 138.022 37.8128 142.673 35.1779C147.319 32.5459 152.153 29.1505 157.125 25.596L158.722 24.4524C168.137 17.7088 178.03 10.6219 187.739 7.6546C192.896 6.07849 198.059 5.64449 203.107 7.06586C208.16 8.48944 213.009 11.7463 217.581 17.3934C217.653 17.4834 217.708 17.5867 217.74 17.6976C217.773 17.8085 217.784 17.9248 217.771 18.0397C217.759 18.1547 217.724 18.2661 217.669 18.3676C217.614 18.4691 217.539 18.5587 217.449 18.6313C217.359 18.704 217.255 18.7581 217.144 18.7908C217.033 18.8235 216.917 18.834 216.802 18.8218C216.687 18.8095 216.575 18.7747 216.473 18.7194C216.372 18.6641 216.282 18.5894 216.209 18.4994C211.817 13.0741 207.261 10.0648 202.628 8.75986C197.991 7.45418 193.186 7.8307 188.255 9.33754C178.834 12.2164 169.161 19.1434 159.658 25.9489L158.152 27.0262C153.187 30.5763 148.281 34.0247 143.544 36.7083C138.812 39.3889 134.179 41.3489 129.753 41.8654C125.288 42.3864 121.05 41.4359 117.189 38.3419C113.36 35.2736 109.967 30.1504 107.036 22.4496C104.166 14.9081 100.773 9.80691 97.0317 6.56186C93.3077 3.33081 89.1972 1.90207 84.7953 1.77018C75.9038 1.50418 65.7795 6.52428 55.3926 13.0556C51.2917 15.6346 47.1857 18.4243 43.1261 21.183C42.0645 21.9036 41.0067 22.6228 39.9525 23.3346C34.8771 26.7661 29.8976 30.045 25.1726 32.6416C20.4542 35.2353 15.9306 37.1813 11.7655 37.9049C7.57829 38.6329 3.69796 38.1319 0.368702 35.7592C0.274512 35.6921 0.194488 35.6071 0.133202 35.509C0.0719162 35.411 0.0305695 35.3019 0.0115244 35.1879C-0.00752066 35.0739 -0.00389095 34.9572 0.0222062 34.8447C0.0483033 34.7321 0.0963565 34.6257 0.16362 34.5316L0.164358 34.5309Z" fill="url(#paint1_linear)"/>
<path fill-rule="evenodd" clip-rule="evenodd" d="M164.289 16.9238H162.615C162.291 16.9238 162.079 17.0712 161.981 17.3674L158.637 30.0595C158.553 30.3542 158.637 30.5031 158.891 30.5031H160.922C161.064 30.5031 161.162 30.4744 161.219 30.4184C161.29 30.3476 161.339 30.2282 161.367 30.0595L161.959 27.7362H164.289V25.5832H162.467L163.991 19.4799H164.075L164.289 20.3347V16.9246V16.9238ZM166.492 29.3293L166.678 30.0588C166.707 30.2282 166.749 30.3476 166.805 30.4184C166.861 30.4744 166.968 30.5031 167.123 30.5031H169.154C169.408 30.5031 169.493 30.355 169.408 30.0595L169.215 29.33H166.492V29.3293ZM155.26 16.9238H152.129C151.903 16.9238 151.769 17.0226 151.727 17.2193L149.462 24.6739H149.335L147.092 17.2193C147.022 17.0226 146.887 16.9246 146.69 16.9246H143.537C143.241 16.9246 143.093 17.0719 143.093 17.3674V30.0595C143.093 30.3542 143.241 30.5031 143.537 30.5031H145.273C145.456 30.5031 145.576 30.4744 145.633 30.4184C145.689 30.3476 145.717 30.2282 145.717 30.0595V20.0274H145.801L148.002 27.1232C148.087 27.4047 148.263 27.5454 148.531 27.5454H150.309C150.577 27.5454 150.753 27.4054 150.838 27.1232L152.996 20.0488H153.08V30.0588C153.08 30.3535 153.229 30.5024 153.525 30.5024H155.26C155.556 30.5024 155.704 30.3542 155.704 30.0588V17.3674C155.704 17.0719 155.556 16.9238 155.26 16.9238ZM47.1415 21.1445V20.3885C47.1415 19.2906 46.8317 18.4388 46.2106 17.8331C45.5902 17.2274 44.7293 16.9246 43.6286 16.9246H38.593C38.2965 16.9246 38.1489 17.0727 38.1489 17.3681V19.0673L40.8356 19.6885V19.4799C40.8356 19.3252 40.9138 19.2478 41.0688 19.2478H43.1424C43.5939 19.2478 43.9252 19.3466 44.1369 19.5433C44.3486 19.7408 44.4541 20.0576 44.4541 20.4938V20.524L47.1415 21.1452V21.1445Z" fill="#1A6899"/>
<path d="M26.5994 30.5031H24.5685C24.314 30.5031 24.2292 30.355 24.314 30.0595L27.6581 17.3674C27.7569 17.0719 27.9679 16.9238 28.2925 16.9238H31.1068C31.4594 16.9238 31.6712 17.0712 31.7413 17.3674L35.0853 30.0595C35.1694 30.355 35.0853 30.5031 34.8315 30.5031H32.7999C32.6449 30.5031 32.5387 30.4744 32.4826 30.4184C32.4258 30.3484 32.3838 30.2282 32.3558 30.0595L31.7626 27.7362H27.6367L27.0443 30.0595C27.0163 30.229 26.9668 30.3484 26.896 30.4184C26.8392 30.4744 26.7411 30.5031 26.5994 30.5031ZM29.6683 19.4799L28.1442 25.5825H31.2765L29.7524 19.4792H29.6683V19.4799Z" fill="#1A6899"/>
</g>
<defs>
<linearGradient id="paint0_linear" x1="217.924" y1="30.5972" x2="203.673" y2="17.7095" gradientUnits="userSpaceOnUse">
<stop stop-color="#25CFC1"/>
<stop offset="1" stop-color="#00DFB7"/>
</linearGradient>
<linearGradient id="paint1_linear" x1="41.3128" y1="62.0719" x2="168.339" y2="-33.9041" gradientUnits="userSpaceOnUse">
<stop stop-color="#FF7878"/>
<stop offset="0.318" stop-color="#FFAA6C"/>
<stop offset="0.542" stop-color="#FFE86C"/>
<stop offset="0.734" stop-color="#A2DD91"/>
<stop offset="1" stop-color="#21CFC3"/>
</linearGradient>
<clipPath id="clip0">
<rect width="225" height="42" fill="white"/>
</clipPath>
</defs>
</svg>
