<svg width="24" height="24" viewBox="0 0 24 24" fill="none" xmlns="http://www.w3.org/2000/svg">
<path d="M19.8023 12.8775L17.9715 11.1846C17.9289 11.147 17.8802 11.1094 17.8255 11.0843C17.5883 10.9338 17.272 10.9903 17.0895 11.2097C16.4934 11.9308 14.3524 14.2945 11.9924 14.2945C9.62632 14.2945 7.49137 11.937 6.89529 11.2097C6.79797 11.0906 6.65807 11.0154 6.49993 11.0028C6.34787 10.9903 6.19581 11.0404 6.08024 11.1408C6.06199 11.1533 6.04983 11.1658 6.03158 11.1784L4.20076 12.8712C3.96354 13.0907 3.93313 13.4606 4.12777 13.7051C4.23725 13.8431 4.40148 13.9246 4.57179 13.9246C4.71169 13.9246 4.85158 13.8681 4.95498 13.7741L6.27488 12.5577C6.34787 12.4888 6.45735 12.495 6.53034 12.5703C6.91354 12.9841 7.32106 13.3666 7.72859 13.7051C7.80158 13.7678 7.81983 13.8744 7.76508 13.9559L6.70065 15.5986C6.52426 15.8745 6.59725 16.2444 6.8588 16.4263C6.95612 16.489 7.0656 16.5266 7.18117 16.5266C7.37581 16.5266 7.5522 16.4263 7.66168 16.2632L8.71395 14.6331C8.76869 14.5516 8.87209 14.5265 8.95725 14.5766C9.70539 15.0155 10.4475 15.2977 11.1773 15.4231C11.2686 15.4356 11.3355 15.5171 11.3355 15.6112V17.3856C11.3355 17.7179 11.5849 17.9937 11.8951 18C11.9012 18 11.9072 18 11.9133 18C12.0654 18 12.2053 17.9436 12.3148 17.8307C12.4303 17.7179 12.4912 17.5674 12.4912 17.4044V15.6237C12.4912 15.5297 12.5581 15.4482 12.6554 15.4356C13.3427 15.3416 14.0544 15.097 14.7599 14.7146C14.8451 14.6644 14.9546 14.6958 15.0032 14.7836L15.9703 16.4325C16.0737 16.6081 16.2623 16.7209 16.463 16.7209C16.5907 16.7209 16.7124 16.6771 16.8158 16.5955C17.0469 16.4137 17.1078 16.0689 16.9496 15.8055L15.9703 14.1315C15.9217 14.05 15.9399 13.9434 16.019 13.887C16.5117 13.5045 16.9983 13.0531 17.4605 12.5577C17.5274 12.4825 17.643 12.4825 17.716 12.5452L19.042 13.7741C19.1454 13.8744 19.2853 13.9246 19.4252 13.9246C19.5955 13.9246 19.7597 13.8431 19.8692 13.7051C20.0699 13.4731 20.0334 13.097 19.8023 12.8775Z" fill="black"/>
</svg>
