<svg width="11" height="19" viewBox="0 0 11 19" fill="none" xmlns="http://www.w3.org/2000/svg">
<path d="M4.10156 12.9844C4.10156 11.9453 4.23047 11.1172 4.48828 10.5C4.74609 9.88281 5.25391 9.20703 6.01172 8.47266C6.77734 7.73047 7.26172 7.20312 7.46484 6.89062C7.77734 6.41406 7.93359 5.89844 7.93359 5.34375C7.93359 4.60937 7.75 4.05078 7.38281 3.66797C7.02344 3.27734 6.49219 3.08203 5.78906 3.08203C5.11719 3.08203 4.57422 3.27344 4.16016 3.65625C3.75391 4.03125 3.55078 4.54297 3.55078 5.19141H0.703125C0.71875 3.80859 1.1875 2.71484 2.10938 1.91016C3.03906 1.10547 4.26562 0.703125 5.78906 0.703125C7.35938 0.703125 8.58203 1.10156 9.45703 1.89844C10.3398 2.69531 10.7812 3.80859 10.7812 5.23828C10.7812 6.51172 10.1875 7.76562 9 9L7.55859 10.418C7.04297 11.0039 6.77734 11.8594 6.76172 12.9844H4.10156ZM3.90234 16.6289C3.90234 16.168 4.04688 15.7969 4.33594 15.5156C4.625 15.2266 5.01562 15.082 5.50781 15.082C6.00781 15.082 6.40234 15.2305 6.69141 15.5273C6.98047 15.8164 7.125 16.1836 7.125 16.6289C7.125 17.0586 6.98438 17.418 6.70312 17.707C6.42188 17.9961 6.02344 18.1406 5.50781 18.1406C4.99219 18.1406 4.59375 17.9961 4.3125 17.707C4.03906 17.418 3.90234 17.0586 3.90234 16.6289Z" fill="#00B6C0"/>
</svg>
